<svg xmlns="http://www.w3.org/2000/svg" xmlns:xlink="http://www.w3.org/1999/xlink" xmlns:inkscape="http://www.inkscape.org/namespaces/inkscape" version="1.1" width="234" height="287" viewBox="184 226 234 287">
<style>
/* Navy crest on light tab bars; flip to white on dark ones. Gold accent stays. */
@media (prefers-color-scheme: dark) {
path[fill="#031021"], path[fill="#031021"] { fill: #ffffff; }
}
</style>
<g>
<path transform="matrix(1,0,0,-1,298.2184,383.4881)" d="M0 0-.015-2.25V0Z" fill="#031021"/>
<path transform="matrix(1,0,0,-1,301.3468,375.7932)" d="M0 0-.111 .053-.182 .017V-.523L-.107-.484 20.728-10.759 20.731-10.761V-14.254H21.215V-10.851H34.243L.116 6.491 .005 6.549-.182 6.453V5.909L.01 6.007 32.219-10.366H29.203L.005 4.884-.107 4.943-.182 4.904V4.356L-.106 4.397 28.156-10.366H26.852L.004 3.401-.108 3.458-.182 3.42V2.873L-.105 2.913 25.79-10.366H21.028Z" fill="#031021"/>
<path transform="matrix(1,0,0,-1,301.1648,422.4114)" d="M0 0V-.484H17.655V-73.754H18.139V5.685C18.139 15.364 10.268 23.236 .589 23.236H0V22.751H.589C10.001 22.751 17.655 15.097 17.655 5.685V1.154H0V.67H17.655V0Z" fill="#031021"/>
<path transform="matrix(1,0,0,-1,0,740)" d="M403.612 237.552H402.047V243.438H403.612ZM401.563 237.552H386.585V243.597L401.563 243.592ZM384.647 237.552V243.598L386.1 243.597V237.552ZM399.573 244.077H388.546V252.127H399.563ZM386.938 253.547 401.509 253.64V244.077H400.058L400.048 252.611H388.061V244.077H386.938ZM388.42 256.755H400.11903V254.013H388.42ZM332.098 237.552H320.21V242.604H321.038V246.283H331.269V242.89H332.098ZM321.038 247.676H322.279V247.675H329.947V247.676H331.269V246.768H321.038ZM322.521 250.025H329.705V248.159H322.521ZM328.818 250.51H324.22999V339.846H328.818ZM322.564 342.381H329.748V340.33103H322.564ZM322.32 342.864H321.261V345.073H330.547V342.864H329.988V342.865H322.32ZM388.357 459.777V462.311H387.645V463.561H399.901V462.374H399.131V459.777ZM406.417 233.88V237.552H404.096V243.921L401.992 243.915 401.994 254.124H400.604V259.04H398.254V459.162H397.77V258.556H400.119V257.239H388.42V258.183H390.397V459.293H399.615V461.889H400.386V466.186H399.901V464.045H387.645V466.346H401.02V466.83H301.165V466.346H387.161V461.827H387.873V459.293H389.912V258.667H387.936V254.032H386.454V244.082H384.163V237.552H332.582V243.374H331.754V248.16H330.189V250.51H329.302V339.846H330.233V342.379H331.032V344.642H331.836V349.217H332.951V353.293H332.466V349.701H301.165V349.217H331.352V345.558H320.928V345.557H301.165V345.073H301.671V340.892H302.156V345.073H320.777V342.379H322.08V339.846H323.746V250.51H322.036V248.16H320.554V243.088H319.726V237.552H301.165V237.067H405.932V233.88Z" fill="#031021"/>
<path transform="matrix(1,0,0,-1,0,740)" d="M301.165 467.95H401.043V468.435H301.165Z" fill="#031021"/>
<path transform="matrix(1,0,0,-1,0,740)" d="M396.273 483.204H396.903V469.877H396.273ZM390.349 483.199V469.877H301.165V469.393H401.022V469.877H397.387V483.204H398.327L400.274 486.178H399.824L302.902 486.251 301.165 486.249V485.765L302.902 485.767 399.378 485.694 398.065 483.688H301.165V483.204H395.789V469.877H391.946V483.199H391.462V469.877H390.833V483.199Z" fill="#031021"/>
<path transform="matrix(1,0,0,-1,0,740)" d="M301.165 232.668H412.071V233.153H301.165Z" fill="#031021"/>
<path transform="matrix(1,0,0,-1,0,740)" d="M375.069 375.506H336.107V377.071H375.069ZM372.297 377.547H338.149V446.453H372.297ZM336.107 449.479H375.069V446.93H336.107ZM336.107 451.506H375.069V449.95603H336.107ZM375.069 372.465H336.107V375.014H375.069ZM335.615 377.547V371.988H375.561V377.547H372.774V446.453H375.561V451.998H335.615V446.453H337.657V377.547Z" fill="#031021"/>
<path transform="matrix(1,0,0,-1,0,740)" d="M369.196 379.217H341.86003V444.15803H369.196ZM369.688 444.635H341.36799V378.725H369.688Z" fill="#031021"/>
<path transform="matrix(1,0,0,-1,0,740)" d="M367.721 380.916H343.456V442.637H367.721ZM368.198 443.129H342.978V380.424H368.198Z" fill="#031021"/>
<path transform="matrix(1,0,0,-1,0,740)" d="M334.82 340.34H373.79103V337.797H334.82ZM334.82 342.379H373.79103V340.824H334.82ZM336.864 337.312H371.01V268.41304H336.864ZM373.791 266.368H334.81999V267.92903H373.791ZM373.791 263.337H334.81999V265.884H373.791ZM334.335 337.312H336.379V268.414H334.335V262.853H374.276V268.414H371.495V337.312H374.276V342.864H334.335Z" fill="#031021"/>
<path transform="matrix(1,0,0,-1,0,740)" d="M340.57 335.021H367.915V270.08H340.57ZM340.086 269.595H368.4V335.505H340.086Z" fill="#031021"/>
<path transform="matrix(1,0,0,-1,0,740)" d="M342.178 333.504H366.433V271.775H342.178ZM341.694 271.291H366.918V333.98899H341.694Z" fill="#031021"/>
<path transform="matrix(1,0,0,-1,391.462,280.8369)" d="M0 0V-200.733H.405 4.981 5.061V0H4.576V-200.249H.484V0Z" fill="#031021"/>
<path transform="matrix(1,0,0,-1,301.1648,293.4618)" d="M0 0V-.484H22.325V4.956H0V4.472H21.84V0Z" fill="#031021"/>
<path transform="matrix(1,0,0,-1,301.1648,366.3458)" d="M0 0V-.485H22.263V4.988H20.284V71.904H19.799V4.504H21.778V3.504H0V3.019H21.778V0Z" fill="#031021"/>
<path transform="matrix(1,0,0,-1,0,740)" d="M319.965 445.038H319.48V378.333H319.965Z" fill="#031021"/>
<path transform="matrix(1,0,0,-1,301.1648,361.9048)" d="M0 0H16.323V66.06H0V65.576H15.838V.485H0Z" fill="#031021"/>
<path transform="matrix(1,0,0,-1,0,740)" d="M301.907 400.111H314.653V380.91H301.907ZM301.907 420.518H314.653V400.595H301.907ZM301.907 441.452H314.653V421.003H301.907ZM301.165 380.909V380.426H315.138V441.936H301.165V441.452H301.423V421.002H301.165V420.518H301.423V400.595H301.165V400.111H301.423V380.909Z" fill="#031021"/>
<path transform="matrix(1,0,0,-1,301.1648,389.683)" d="M0 0C2.886 .03 5.229 2.394 5.229 5.282 5.229 8.179 2.886 10.538 0 10.569V10.084C2.619 10.054 4.745 7.918 4.745 5.282 4.745 2.656 2.619 .515 0 .484Z" fill="#031021"/>
<path transform="matrix(1,0,0,-1,301.1648,388.2834)" d="M0 0V-.484C2.382-.454 4.314 1.499 4.314 3.883 4.314 6.276 2.382 8.228 0 8.259V7.774C2.116 7.744 3.83 6.014 3.83 3.883 3.83 1.76 2.116 .031 0 0" fill="#031021"/>
<path transform="matrix(1,0,0,-1,0,740)" d="M327.588 251.508H325.466V338.839H327.588ZM328.072 339.322H324.982V251.02298H328.072Z" fill="#031021"/>
<path transform="matrix(1,0,0,-1,301.1648,420.592)" d="M0 0H16.463V2.243C16.463 11.413 9.192 18.883 .259 18.883H0V18.398H.259C8.926 18.398 15.979 11.152 15.979 2.243V.485H0Z" fill="#031021"/>
<path transform="matrix(1,0,0,-1,306.002,415.98)" d="M0 0C0 .001-.001 .001-.001 .001L6.801 6.492V6.491C6.801 6.491 6.801 6.491 6.801 6.491 8.613 4.025 9.688 .95 9.688-2.369V-2.674H1.012C.891-1.686 .533-.775 0 0M-.295 .392C-.402 .537-.517 .667-.643 .797L6.132 7.32C6.132 7.32 6.133 7.319 6.133 7.319 6.307 7.126 6.467 6.932 6.617 6.723L6.618 6.721 6.486 6.86-.294 .391C-.295 .391-.295 .392-.295 .392M-.992 1.136-.994 1.134C-1.875 1.928-2.988 2.474-4.218 2.645V12.324C-.269 12.233 3.284 10.458 5.809 7.685ZM-4.837-3.159H10.173V-2.369C10.173 6.006 3.556 12.818-4.578 12.818H-4.837V12.333H-4.702V2.698H-4.704V2.209C-4.689 2.209-4.674 2.207-4.659 2.207-4.51 2.2-4.364 2.185-4.218 2.158V2.16C-3.124 1.991-2.136 1.496-1.342 .799-1.341 .798-1.341 .798-1.34 .797H-1.341C-1.219 .69-1.103 .579-.992 .463H-.991C-.871 .333-.755 .203-.644 .063L-.641 .06-.358-.34C.097-1.032 .407-1.817 .523-2.674H-.455C-.818-.531-2.628 1.122-4.837 1.251V.767C-2.894 .64-1.301-.801-.949-2.674H-4.837Z" fill="#031021"/>
<path transform="matrix(1,0,0,-1,0,740)" d="M314.121 291.738H303.721V311.992H314.121ZM314.605 312.477H303.23603V291.255H314.605Z" fill="#031021"/>
<path transform="matrix(1,0,0,-1,0,740)" d="M303.72 283.3H314.12V253.03398H303.72ZM303.236 252.549H314.60499V283.784H303.236Z" fill="#031021"/>
<path transform="matrix(1,0,0,-1,300.8637,369.3021)" d="M0 0-34.127-17.342H-21.099V-20.745H-20.614V-17.252L-20.612-17.25 .223-6.975 .298-7.014V-6.474L.228-6.438 .116-6.491-20.912-16.857H-25.673L.222-3.579 .298-3.619V-3.071L.224-3.033 .113-3.09-26.736-16.857H-28.04L.222-2.095 .298-2.135V-1.587L.224-1.548 .111-1.607-29.086-16.857H-32.102L.106-.484 .298-.582V-.038L.111 .058Z" fill="#031021"/>
<path transform="matrix(1,0,0,-1,283.0226,416.726)" d="M0 0V-79.439H.484V-6.169H18.139V-5.685H.484V-5.015H18.139V-4.531H.484V0C.484 9.412 8.138 17.066 17.55 17.066H18.139V17.551H17.55C7.872 17.551 0 9.679 0 0" fill="#031021"/>
<path transform="matrix(1,0,0,-1,214.6814,277.6892)" d="M0 0H-.712V-2.533H-11.486V.063H-12.256V1.25H0ZM.707-208.764V-218.234H-.416V-209.7H-12.402V-218.234H-13.864V-208.671ZM2.998-224.759H1.545L1.564-218.713H2.998ZM-11.918-210.184H-.9000006V-218.23401H-11.918ZM-13.917-224.759V-218.713H1.08L1.061-224.759ZM-12.474-205.556H-.7749996V-208.298H-12.474ZM55.548-219.421H56.376V-216.028H66.607V-219.707H67.435V-224.759H55.548ZM56.376-214.635H57.699V-214.636H65.367V-214.635H66.607V-215.543H56.376ZM57.941-212.285H65.125V-214.151H57.941ZM63.415-211.801H58.827V-122.465H63.415ZM57.897-119.93H65.081V-121.98H57.897ZM57.657-119.447H57.098V-117.237H66.384V-119.447H65.326V-119.446H57.657ZM-14.402-224.759H-15.967001V-218.873H-14.402ZM-13.375 4.036H0V1.734H-12.256V3.875H-12.74V-.421H-11.97V-3.017H-2.752V-204.128H-.775V-205.072H-12.474V-203.755H-10.125V-3.148H-10.609V-203.27H-12.958V-208.187H-14.349V-218.234L-14.352-218.387-16.451-218.389V-224.759H-18.771V-228.431H-18.287V-225.244H86.481V-224.759H67.92V-219.223H67.092V-214.151H65.609V-211.801H63.899V-122.465H65.565V-119.932H66.869V-117.238H85.49V-121.419H85.974V-117.238H86.481V-116.753H66.717 56.294V-113.094H86.481V-112.61H55.179V-109.018H54.694V-113.094H55.809V-117.669H56.613V-119.932H57.413V-122.465H58.343V-211.801H57.456V-214.151H55.892V-218.937H55.064V-224.759H3.483V-218.229H1.192V-208.279H-.291V-203.644H-2.267V-3.017H-.228V-.484H.484V4.036H86.481V4.52H-13.375Z" fill="#031021"/>
<path transform="matrix(1,0,0,-1,0,740)" d="M201.284 467.95H301.162V468.435H201.284Z" fill="#031021"/>
<path transform="matrix(1,0,0,-1,196.2823,234.6145)" d="M0 0V1.463H104.883 105.037 209.587V0H105.037 104.883ZM208.846-2.858H105.037 104.883 .741V-.485H104.883 105.037 208.846ZM208.846-4.675 208.478-5.13H207.465V-4.956H105.037 104.883 2.122V-5.13H1.11L.741-4.675V-3.343H104.883 105.037 208.846ZM207.223-7.785 106.619-7.446 104.953-7.452 102.968-7.446 2.364-7.785V-5.44H104.883 105.037 207.223ZM206.085-9.752 201.332-9.732V-9.611H198.959V-9.717L195.951-9.698V-9.611H193.582V-9.688L190.574-9.669V-9.611H188.2V-9.66L185.192-9.64V-9.611H182.823L183.452-9.631 107.249-9.204 105.452-9.213 102.968-9.204 26.764-9.631V-9.611H24.395V-9.64L21.387-9.66V-9.611H19.013V-9.669L16.005-9.688V-9.611H13.636V-9.698L10.628-9.717V-9.611H8.255V-9.732L3.502-9.752 2.698-8.269 102.968-7.93 104.883-7.936H104.953 105.037L106.619-7.93 206.889-8.269ZM199.443-13.617V-10.207L200.848-10.212V-13.617ZM194.066-13.617V-10.173L195.466-10.182V-13.617ZM188.684-13.617V-10.144L190.089-10.153V-13.617ZM183.307-13.617V-10.115L184.707-10.124V-13.617ZM177.926-10.095H179.32599V-13.617001H177.926ZM172.544-10.095H173.949V-13.617001H172.544ZM167.167-10.095H168.567V-13.617001H167.167ZM161.785-10.095H163.185V-13.617001H161.785ZM156.403-10.095H157.808V-13.617001H156.403ZM151.026-10.095H152.426V-13.617001H151.026ZM145.644-10.095H147.04399V-13.617001H145.644ZM140.262-10.095H141.66699V-13.617001H140.262ZM134.885-10.095H136.28499V-13.617001H134.885ZM129.503-10.095H130.908V-13.617001H129.503ZM124.126-10.095H125.526V-13.617001H124.126ZM118.744-10.095H120.144008V-13.617001H118.744ZM113.363-10.095H114.768V-13.617001H113.363ZM108.615-10.095H110.015V-13.617001H108.615ZM104.519-13.617V-10.095H105.068 105.536 105.752V-13.617H105.536 105.382ZM100.201-10.095H101.601V-13.617001H100.201ZM94.819-10.095H96.224V-13.617001H94.819ZM89.443-10.095H90.843V-13.617001H89.443ZM84.061-10.095H85.461V-13.617001H84.061ZM78.679-10.095H80.084V-13.617001H78.679ZM73.302-10.095H74.702V-13.617001H73.302ZM67.92-10.095H69.325V-13.617001H67.92ZM62.543-10.095H63.943V-13.617001H62.543ZM57.161-10.095H58.561V-13.617001H57.161ZM51.779-10.095H53.184V-13.617001H51.779ZM46.402-10.095H47.802003V-13.617001H46.402ZM41.02-10.095H42.420003V-13.617001H41.02ZM35.639-10.095H37.044V-13.617001H35.639ZM30.261-10.095H31.661V-13.617001H30.261ZM24.88-13.617V-10.124L26.28-10.115V-13.617ZM19.498-13.617V-10.153L20.903-10.144V-13.617ZM14.121-13.617V-10.182L15.521-10.173V-13.617ZM8.739-13.617V-10.212L10.144-10.207V-13.617ZM204.859-14.16H202.941V-16.297H105.037 104.883 6.646V-14.16H4.728V-10.236L8.255-10.217V-14.102H10.628V-10.202L13.636-10.182V-14.102H16.005V-10.173L19.013-10.153V-14.102H21.387V-10.144L24.395-10.124V-14.102H26.764V-10.115L29.777-10.095V-14.102H32.146V-10.081L35.154-10.062V-14.102H37.528V-10.052L40.536-10.033V-14.102H42.905V-10.023L45.918-10.003V-14.102H48.287V-9.994L51.295-9.974V-14.102H53.669V-9.965L56.677-9.941V-14.102H59.046V-9.931L62.059-9.912V-14.102H64.428V-9.902L67.435-9.883V-14.102H69.809V-9.872L72.817-9.853V-14.102H75.186V-9.844L78.195-9.819V-14.102H80.568V-9.81L83.576-9.79V-14.102H85.945V-9.781L88.958-9.761V-14.102H91.327V-9.752L94.335-9.732V-14.102H96.709V-9.723L99.717-9.698V-14.102H102.086V-9.688H104.035V-14.102H105.382 105.536 106.237V-9.688H108.131V-14.102H110.499V-9.698L112.878-9.723V-14.102H115.252V-9.732L118.26-9.752V-14.102H120.629V-9.761L123.642-9.781V-14.102H126.011V-9.79L129.019-9.81V-14.102H131.393V-9.819L134.401-9.844V-14.102H136.77V-9.853L139.778-9.872V-14.102H142.151V-9.883L145.16-9.902V-14.102H147.528V-9.912L150.541-9.931V-14.102H152.91V-9.941L155.918-9.965V-14.102H158.292V-9.974L161.3-9.994V-14.102H163.669V-10.003L166.682-10.023V-14.102H169.051V-10.033L172.059-10.052V-14.102H174.433V-10.062L177.441-10.081V-14.102H179.81V-10.095L182.823-10.115V-14.102H185.192V-10.124L188.2-10.144V-14.102H190.574V-10.153L193.582-10.173V-14.102H195.951V-10.182L198.959-10.202V-14.102H201.332V-10.217L204.859-10.236ZM.257-4.844 .877-5.615H1.88V-7.915H1.957L3.217-10.246 4.243-10.236V-14.644H6.162V-19.169H6.646V-16.781H104.883 105.037 202.941V-19.169H203.425V-14.644H205.343V-10.236L206.37-10.246 207.63-7.915H207.707V-5.615H208.71L209.33-4.844V-.485H210.072V1.947H105.037 104.883-.484V-.485H.257Z" fill="#031021"/>
<path transform="matrix(1,0,0,-1,0,740)" d="M190.256 232.668H301.162V233.153H190.256Z" fill="#031021"/>
<path transform="matrix(1,0,0,-1,0,740)" d="M206.054 469.877H205.424V483.204H206.054ZM202.503 486.178H202.053L204 483.204H204.94V469.877H201.305V469.393H301.162V469.877H211.978V483.199H211.493V469.877H210.865V483.199H210.38V469.877H206.538V483.204H301.162V483.688H204.262L202.949 485.694 299.425 485.767 301.162 485.765V486.249L299.425 486.251Z" fill="#031021"/>
<path transform="matrix(1,0,0,-1,0,740)" d="M266.223 375.504H227.25199V377.064H266.223ZM264.18 377.548H230.034V446.44703H264.18ZM227.252 449.475H266.223V446.931H227.252ZM227.252 451.513H266.223V449.959H227.252ZM266.223 372.471H227.25199V375.02003H266.223ZM226.767 377.548V371.987H266.707V377.548H264.664V446.447H266.707V451.997H226.767V446.447H229.549V377.548Z" fill="#031021"/>
<path transform="matrix(1,0,0,-1,0,740)" d="M260.473 379.214H233.12799V444.154H260.473ZM260.958 444.639H232.64402V378.729H260.958Z" fill="#031021"/>
<path transform="matrix(1,0,0,-1,0,740)" d="M258.865 380.909H234.60999V442.643H258.865ZM259.349 443.128H234.125V380.426H259.349Z" fill="#031021"/>
<path transform="matrix(1,0,0,-1,0,740)" d="M228.536 340.34H267.507V337.797H228.536ZM231.316 337.312H265.462V268.41304H231.316ZM267.507 266.368H228.53598V267.92903H267.507ZM267.507 263.337H228.53598V265.884H267.507ZM228.536 342.379H267.507V340.824H228.536ZM267.991 337.312V342.864H228.051V337.312H230.832V268.414H228.051V262.853H267.991V268.414H265.947V337.312Z" fill="#031021"/>
<path transform="matrix(1,0,0,-1,0,740)" d="M234.412 335.021H261.757V270.08H234.412ZM233.927 269.595H262.241V335.505H233.927Z" fill="#031021"/>
<path transform="matrix(1,0,0,-1,0,740)" d="M235.894 333.504H260.149V271.775H235.894ZM235.409 271.291H260.633V333.98899H235.409Z" fill="#031021"/>
<path transform="matrix(1,0,0,-1,205.8039,280.8369)" d="M0 0V-200.733H.08 4.656 5.061V0H4.576V-200.249H.484V0Z" fill="#031021"/>
<path transform="matrix(1,0,0,-1,278.8373,293.9457)" d="M0 0H22.325V.484H.485V4.956H22.325V5.439H0Z" fill="#031021"/>
<path transform="matrix(1,0,0,-1,279.3837,361.8423)" d="M0 0H1.979V67.401H1.494V.485H-.484V-4.988H21.778V-4.504H0V-1.485H21.778V-1H0Z" fill="#031021"/>
<path transform="matrix(1,0,0,-1,0,740)" d="M282.362 378.333H282.846V445.03804H282.362Z" fill="#031021"/>
<path transform="matrix(1,0,0,-1,284.8391,361.9048)" d="M0 0H16.323V.485H.484V65.576H16.323V66.06H0Z" fill="#031021"/>
<path transform="matrix(1,0,0,-1,0,740)" d="M287.673 400.111H300.419V380.91H287.673ZM287.673 420.518H300.419V400.595H287.673ZM287.673 441.452H300.419V421.003H287.673ZM287.189 380.426H301.162V380.909H300.904V400.111H301.162V400.595H300.904V420.518H301.162V421.002H300.904V441.452H301.162V441.936H287.189Z" fill="#031021"/>
<path transform="matrix(1,0,0,-1,295.9324,384.4007)" d="M0 0C0-2.888 2.344-5.252 5.229-5.282V-4.798C2.61-4.768 .484-2.627 .484 0 .484 2.635 2.61 4.772 5.229 4.802V5.287C2.344 5.256 0 2.897 0 0" fill="#031021"/>
<path transform="matrix(1,0,0,-1,296.848,384.4007)" d="M0 0C0-2.384 1.932-4.337 4.314-4.367V-3.883C2.198-3.852 .484-2.123 .484 0 .484 2.132 2.198 3.862 4.314 3.891V4.376C1.932 4.346 0 2.393 0 0" fill="#031021"/>
<path transform="matrix(1,0,0,-1,0,740)" d="M276.861 251.508H274.73899V338.839H276.861ZM277.345 339.322H274.254V251.02298H277.345Z" fill="#031021"/>
<path transform="matrix(1,0,0,-1,284.6987,418.3489)" d="M0 0V-2.243H16.463V-1.758H.485V0C.485 8.909 7.537 16.155 16.204 16.155H16.463V16.64H16.204C7.271 16.64 0 9.17 0 0" fill="#031021"/>
<path transform="matrix(1,0,0,-1,300.5428,413.3352)" d="M0 0C-1.23-.17-2.343-.717-3.224-1.511L-3.226-1.509-10.027 5.04C-7.502 7.813-3.949 9.588 0 9.679ZM-3.923-2.253C-3.923-2.253-3.923-2.254-3.924-2.254L-10.704 4.215-10.836 4.076-10.835 4.079C-10.685 4.287-10.525 4.481-10.351 4.675H-10.35C-10.35 4.675-10.35 4.675-10.35 4.675L-3.575-1.848C-3.701-1.978-3.816-2.108-3.923-2.253M-4.218-2.645C-4.751-3.42-5.109-4.33-5.23-5.319H-13.906V-5.014C-13.906-1.695-12.831 1.381-11.019 3.846V3.847C-11.019 3.847-11.019 3.846-11.019 3.847L-4.217-2.643C-4.217-2.644-4.218-2.644-4.218-2.645M-14.391-5.014V-5.803H.619V-5.319H-3.269C-2.917-3.446-1.324-2.005 .619-1.878V-1.394C-1.59-1.523-3.4-3.175-3.763-5.319H-4.741C-4.625-4.461-4.315-3.677-3.86-2.985L-3.577-2.585-3.574-2.582C-3.463-2.442-3.347-2.312-3.227-2.182H-3.226C-3.115-2.066-2.999-1.955-2.877-1.848H-2.878C-2.877-1.846-2.877-1.846-2.876-1.846-2.082-1.148-1.094-.654 0-.485V-.487C.146-.46 .292-.445 .441-.438 .456-.438 .471-.436 .486-.436V.053H.484V9.688H.619V10.173H.36C-7.774 10.173-14.391 3.362-14.391-5.014" fill="#031021"/>
<path transform="matrix(1,0,0,-1,0,740)" d="M298.606 291.738H288.206V311.992H298.606ZM299.091 312.477H287.72203V291.255H299.091Z" fill="#031021"/>
<path transform="matrix(1,0,0,-1,0,740)" d="M288.206 283.3H298.606V253.03398H288.206ZM287.722 252.549H299.09098V283.784H287.722Z" fill="#031021"/>
<path transform="matrix(1,0,0,-1,355.2955,451.8917)" d="M0 0C-2.05-.266-4.525 .573-6.031 2.05-7.035 3.028-7.771 4.378-8.217 6.062-8.936 8.851-8.644 11.829-7.394 14.446L-.803 28.196C.06 26.241 .922 24.285 1.785 22.33 3.228 19.059 4.918 15.803 6.18 12.468 7.183 9.816 7.306 6.665 5.869 4.14 4.63 1.953 2.271 .289 0 0M8.05 9.849C7.778 12.373 6.551 14.5 5.545 16.786 4.71 18.686 3.874 20.585 3.039 22.484 1.778 25.351 .517 28.217-.744 31.084L-8.461 15.039C-9.848 12.129-10.17 8.819-9.367 5.715-8.825 3.665-7.873 2.02-6.538 .823-5.145-.402-3.169-1.16-.972-1.309-.848-1.317-.725-1.322-.601-1.322 2.488-1.322 5.533 1.092 6.893 3.464 8.001 5.397 8.286 7.658 8.05 9.849" fill="#906d37"/>
<path transform="matrix(1,0,0,-1,352.6413,448.7484)" d="M0 0C-1.715 .451-2.866 1.687-3.422 3.675-3.854 5.22-3.752 6.644-3.75 6.664-3.74 6.828-3.788 6.987-3.886 7.114-3.99 7.247-4.135 7.327-4.297 7.343L-4.346 7.345C-4.655 7.345-4.918 7.09-4.944 6.764-4.949 6.697-5.067 5.111-4.574 3.33-3.898 .906-2.416-.67-.297-1.226-.248-1.24-.198-1.247-.144-1.247 .135-1.247 .373-1.047 .437-.761 .512-.424 .317-.083 0 0" fill="#906d37"/>
<path transform="matrix(1,0,0,-1,360.1557,443.3038)" d="M0 0C-.151 .019-.3-.023-.422-.121-.555-.227-.64-.39-.657-.565-.669-.681-.79-1.734-1.296-2.833-1.982-4.318-3.03-5.193-4.41-5.434-4.568-5.462-4.707-5.554-4.8-5.694-4.891-5.83-4.927-5.995-4.902-6.155-4.859-6.466-4.612-6.691-4.294-6.691H-4.292L-4.215-6.682C-2.453-6.378-1.069-5.233-.214-3.37 .373-2.09 .512-.913 .533-.688 .565-.342 .326-.034 0 0" fill="#906d37"/>
<path transform="matrix(1,0,0,-1,0,740)" d="M248.749 390.753H243.66599V408.177H248.749ZM245.529 410.532 245.544 415.347 244.307 416.837H248.123L246.856 415.436 246.766 410.636 248.495 408.654H243.949ZM244.203 433.113H248.421V417.314H244.203ZM247.258 410.815 247.333 415.242 248.913 416.986V433.605H243.726V416.777L245.067 415.168 245.037 410.711 243.189 408.505V390.261H249.241V408.55Z" fill="#906d37"/>
<path transform="matrix(1,0,0,-1,0,740)" d="M244.389 417.501H248.235V432.928H244.389ZM248.607 417.128H244.01599V433.3H248.607ZM243.852 390.94H248.56201V407.991H243.852ZM248.935 390.567H243.48V408.36299H248.935ZM244.35 408.841H248.086L246.578 410.568 246.671 415.509 247.704 416.651H244.704L245.73 415.414 245.715 410.464ZM243.375 390.448H249.054V408.48L247.07 410.747 247.148 415.316 248.726 417.058V433.419H243.912V417.024H248.543L247.041 415.362 246.954 410.705 248.905 408.468H243.549L245.343 410.6 245.358 415.28 243.912 417.022V416.846L245.255 415.235 245.223 410.643 243.375 408.437ZM249.427 390.075H243.003V408.573L244.852 410.779 244.88 415.101 243.539 416.71V433.792H249.099V416.914L247.517 415.169 247.446 410.884 249.427 408.619Z" fill="#906d37"/>
<path transform="matrix(1,0,0,-1,0,740)" d="M245.078 431.839H247.181V432.323H245.078Z" fill="#906d37"/>
<path transform="matrix(1,0,0,-1,0,740)" d="M245.264 432.026H246.994V432.137H245.264ZM247.367 431.653H244.892V432.51H247.367Z" fill="#906d37"/>
<path transform="matrix(1,0,0,-1,0,740)" d="M247.464 392.05H244.851V391.56599H247.464Z" fill="#906d37"/>
<path transform="matrix(1,0,0,-1,0,740)" d="M245.037 391.752H247.278V391.864H245.037ZM247.65 391.38H244.664V392.237H247.65Z" fill="#906d37"/>
<path transform="matrix(1,0,0,-1,245.0523,454.4615)" d="M0 0 3.16 13.549C3.19 13.683 3.16 13.832 3.07 13.951 2.996 14.055 2.862 14.13 2.728 14.13H-3.637L5.202 31.286 2.325 18.959C2.295 18.825 2.325 18.676 2.4 18.572 2.489 18.452 2.608 18.393 2.742 18.378L9.703 18.125ZM10.836 18.795C10.761 18.944 10.627 19.034 10.463 19.034L3.324 19.302 6.901 34.624C6.961 34.863 6.841 35.101 6.633 35.176 6.409 35.266 6.186 35.176 6.066 34.967L-4.785 13.877C-4.859 13.727-4.859 13.549-4.77 13.415-4.695 13.265-4.546 13.176-4.382 13.176H2.146L-1.669-3.13C-1.714-3.354-1.595-3.592-1.386-3.682-1.341-3.696-1.282-3.711-1.222-3.711-1.073-3.711-.909-3.622-.835-3.473L10.836 18.333C10.925 18.482 10.925 18.661 10.836 18.795" fill="#906d37"/>
<path transform="matrix(1,0,0,-1,245.0523,454.4615)" d="M0 0 3.16 13.549C3.19 13.683 3.16 13.832 3.07 13.951 2.996 14.055 2.862 14.13 2.728 14.13H-3.637L5.202 31.286 2.325 18.959C2.295 18.825 2.325 18.676 2.4 18.572 2.489 18.452 2.608 18.393 2.742 18.378L9.703 18.125Z" fill="#906d37"/>
<path transform="matrix(1,0,0,-1,360.298,325.0111)" d="M0 0H-10.687V2.504H-.03C-.015 2.042-.015 1.505-.015 .954-.015 .805-.015 .626 0 .417ZM-.343-2.31C-.432-2.4-.596-2.445-.775-2.504L-.864-2.534C-1.491-2.728-2.072-3.056-2.593-3.518H-8.183C-8.57-3.25-8.868-3.16-8.928-3.145-9.748-2.951-10.284-2.579-10.568-2.072-10.791-1.625-10.791-1.178-10.746-.909H-.015C-.045-1.64-.164-2.117-.343-2.31M-4.412-6.603C-4.948-8.57-4.844-10.911-4.129-13.191-2.057-19.764-2.653-22.581-3.518-23.788-4.307-24.906-5.425-24.802-5.44-24.802-6.424-24.698-7.139-24.265-7.602-23.475-9.33-20.465-6.961-13.429-6.931-13.325-5.992-9.599-6.022-6.767-7.035-4.889-7.125-4.725-7.214-4.561-7.318-4.427H-3.383C-3.845-5.053-4.188-5.798-4.412-6.603M-10.687 15.024H-9.822V3.905H-9.003V15.024H-8.183V3.905H-7.363V15.024H-6.543V3.905H-5.723V15.024H-4.919V3.905H-4.084V15.024H-3.279V3.905H-2.444V15.024H-1.64V3.905H-.82V15.024H-.089V5.097C-.089 4.531-.074 3.965-.06 3.413H-10.687ZM.82 .447C.805 .641 .805 .805 .805 .954 .82 1.669 .79 2.4 .775 3.115V3.234C.76 3.845 .745 4.486 .745 5.097V15.471C.745 15.71 .552 15.918 .328 15.918H-11.104C-11.328 15.918-11.507 15.71-11.507 15.471V-.477C-11.581-.76-11.73-1.64-11.283-2.504-10.896-3.25-10.165-3.756-9.122-4.009-9.092-4.025-8.824-4.099-8.496-4.382L-8.466-4.412C-8.183-4.651-7.929-4.978-7.736-5.366-7.125-6.499-6.633-8.764-7.706-13.057-7.81-13.355-10.27-20.524-8.287-23.952-7.691-24.981-6.767-25.577-5.5-25.696H-5.366C-5.008-25.696-3.771-25.607-2.877-24.355-2.236-23.461-1.908-22.164-1.893-20.509-1.893-18.512-2.385-15.949-3.339-12.908-4.009-10.791-4.099-8.645-3.622-6.856-3.354-5.888-2.892-5.053-2.28-4.427L-2.116-4.263C-1.684-3.861-1.177-3.563-.641-3.398L-.551-3.369C-.313-3.294-.015-3.205 .224-2.951 .879-2.281 .85-.701 .82 .447" fill="#906d37"/>
<path transform="matrix(1,0,0,-1,354.9173,347.1303)" d="M0 0C-.373 0-.671 .328-.671 .73-.671 1.133-.373 1.461 0 1.461 .373 1.461 .671 1.133 .671 .73 .671 .328 .373 0 0 0M0 2.37C-.835 2.37-1.505 1.64-1.505 .73-1.505-.164-.835-.894 0-.894 .82-.894 1.491-.164 1.491 .73 1.491 1.64 .82 2.37 0 2.37" fill="#906d37"/>
<path transform="matrix(1,0,0,-1,286.8022,453.4089)" d="M0 0C-.583 0-1.049 .466-1.049 1.049-1.049 1.632-.583 2.098 0 2.098 .583 2.098 1.062 1.632 1.062 1.049 1.062 .466 .583 0 0 0M-.001 2.629C-.865 2.629-1.581 1.928-1.581 1.049-1.581 .17-.865-.531-.001-.531 .878-.531 1.594 .17 1.594 1.049 1.594 1.928 .878 2.629-.001 2.629" fill="#906d37"/>
<path transform="matrix(1,0,0,-1,0,740)" d="M350.207 418.864H349.983V430.013H350.207Z" fill="#906d37"/>
<path transform="matrix(1,0,0,-1,0,740)" d="M351.802 418.864H351.578V430.013H351.802Z" fill="#906d37"/>
<path transform="matrix(1,0,0,-1,0,740)" d="M353.397 418.864H353.173V430.013H353.397Z" fill="#906d37"/>
<path transform="matrix(1,0,0,-1,0,740)" d="M355.066 418.864H354.842V430.013H355.066Z" fill="#906d37"/>
<path transform="matrix(1,0,0,-1,0,740)" d="M356.706 418.864H356.482V430.013H356.706Z" fill="#906d37"/>
<path transform="matrix(1,0,0,-1,0,740)" d="M358.345 418.864H358.121V430.013H358.345Z" fill="#906d37"/>
<path transform="matrix(1,0,0,-1,0,740)" d="M359.955 418.864H359.731V430.013H359.955Z" fill="#906d37"/>
</g>
</svg>